<svg xmlns="http://www.w3.org/2000/svg" width="98.83" height="98.83" viewBox="0 0 98.83 98.83"><path d="M61.89 72.516h-3.966V46.103a3.598 3.598 0 0 0-3.598-3.604h-9.819a3.6 3.6 0 0 0-3.598 3.604v26.413h-3.972a2.343 2.343 0 0 0-1.783 3.852l10.629 12.495a4.772 4.772 0 0 0 7.267 0l10.622-12.495a2.338 2.338 0 0 0 .342-2.498 2.344 2.344 0 0 0-2.124-1.354z"/><path d="M79.043 23.417a2.445 2.445 0 0 1-1.762-.982c-4.026-5.453-10.496-8.818-17.377-8.818-.438 0-.877.013-1.316.04a2.43 2.43 0 0 1-1.618-.489 24.086 24.086 0 0 0-14.581-4.88 24.198 24.198 0 0 0-21.91 13.882 2.442 2.442 0 0 1-1.873 1.377C8.109 25.005 0 34.04 0 44.931 0 56.834 9.685 66.52 21.59 66.52h15.319v-8.506H21.59c-7.214 0-13.083-5.869-13.083-13.083 0-7.215 5.869-13.083 13.083-13.083.364 0 .723.029 1.08.058a4.255 4.255 0 0 0 4.467-3.204 15.71 15.71 0 0 1 15.252-11.908c4.125 0 8.029 1.593 10.993 4.485a4.256 4.256 0 0 0 3.838 1.12 13.256 13.256 0 0 1 2.685-.276c5.051 0 9.562 2.839 11.771 7.41a4.244 4.244 0 0 0 4.252 2.382c.441-.044.884-.066 1.312-.066 7.215 0 13.084 5.869 13.084 13.083 0 7.213-5.869 13.083-13.084 13.083H61.924v8.506H77.24c11.904 0 21.59-9.686 21.59-21.587 0-11.3-8.723-20.599-19.787-21.517z"/></svg>