<svg xmlns="http://www.w3.org/2000/svg" width="612" height="612.001" viewBox="0 0 612 612.001"><path d="M31.727 89.566C19.946 53.86 39.409 15.223 75.119 3.44c35.71-11.783 74.345 7.687 86.126 43.393l133.999 406.124c-12.488-3.298-25.768-3.901-39.025-1.477L126.49 58.3c-5.459-16.546-23.357-25.563-39.903-20.104S61.024 61.553 66.483 78.099c3.167 9.597-2.047 19.945-11.644 23.111-9.597 3.166-19.945-2.047-23.112-11.644zm527.95 318.588l-219.548 72.438a89.628 89.628 0 0 1 17.889 31.244c.141.424.218.853.351 1.276l212.775-70.203c9.597-3.167 14.81-13.515 11.644-23.112-3.165-9.596-13.514-14.809-23.111-11.643zm-219.034 109.42c12.438 37.701-8.039 78.347-45.741 90.787-37.701 12.439-78.347-8.04-90.786-45.74-12.439-37.701 8.039-78.347 45.74-90.787 37.701-12.439 78.348 8.04 90.787 45.74zm-34.133 11.262c-6.219-18.851-26.542-29.089-45.393-22.869-18.851 6.219-29.09 26.542-22.871 45.393 6.22 18.851 26.543 29.09 45.394 22.87 18.851-6.22 29.09-26.543 22.87-45.394zm192.833-405.859l74.537 225.91a9.15 9.15 0 0 1-5.821 11.556L333.46 437.847a9.15 9.15 0 0 1-11.556-5.821l-74.538-225.91a9.149 9.149 0 0 1 5.822-11.555l234.599-77.405a9.148 9.148 0 0 1 11.556 5.821zm-31.032 131.23l-79.882-43.951-38.028 82.854 25.178 11.587 16.442-35.843 29.69 89.985 28.414-9.375-29.686-89.971 34.533 19.008 13.339-24.294z"/></svg>